# xmcd CD database file generated by Grip 3.2.0
# 
# Track frame offsets:
#       150
#       20797
#       45630
#       64290
#       77815
#       97347
#       123082
#       140965
#       162415
#       180822
#       207837
#       234185
# 
# Disc length: 3273 seconds
# 
# Revision: 4
# Processed by: cddbd v1.5.1PL0 Copyright (c) Steve Scherf et al.
# Submitted via: Grip 3.2.0
# 
DISCID=a50cc70c
DTITLE=Johnny Winter - The Winter of '88
DYEAR=1988
DGENRE=Blues
TTITLE0=Close To Me
TTITLE1=Rain
TTITLE2=Stranger Blues
TTITLE3=Ain't That Just Like A Woman
TTITLE4=World of Contradictions
TTITLE5=Lightning
TTITLE6=Looking For Trouble
TTITLE7=Show Me
TTITLE8=Anything For Your Love
TTITLE9=Look Away
TTITLE10=Mother Earth
TTITLE11=It'll Be Me
EXTD=LABEL =MCA Records, Inc.\nID =MCAD-42241\nUPC =07674-22241-27\nCOPY
EXTD=RIGHT =1988
EXTT0=
EXTT1=
EXTT2=
EXTT3=
EXTT4=
EXTT5=
EXTT6=
EXTT7=
EXTT8=
EXTT9=
EXTT10=
EXTT11=
PLAYORDER=
